<svg width="430" height="133" viewBox="0 0 430 133" fill="none" xmlns="http://www.w3.org/2000/svg">
<path d="M6.5 31C-17.7023 41.2117 -50 67.5 -50 67.5V83.5L435.5 92V0C435.5 0 393.713 17.9511 365.5 24.5C320.733 34.8915 293.956 31.2102 248 31C205.553 30.8059 181.945 24.967 139.5 24.5C87.5014 23.9278 54.4115 10.7846 6.5 31Z" fill="white" fill-opacity="0.5"/>
<path d="M3.5 72C-20.7023 82.2117 -53 108.5 -53 108.5V124.5L432.5 133V41C432.5 41 390.713 58.9511 362.5 65.5C317.733 75.8915 290.956 72.2102 245 72C202.553 71.8059 178.945 65.967 136.5 65.5C84.5014 64.9278 51.4115 51.7846 3.5 72Z" fill="white" fill-opacity="0.5"/>
<path d="M6.5 66C-17.7023 76.2117 -50 102.5 -50 102.5V118.5L435.5 127V35C435.5 35 393.713 52.9511 365.5 59.5C320.733 69.8915 293.956 66.2102 248 66C205.553 65.8059 181.945 59.967 139.5 59.5C87.5014 58.9278 54.4115 45.7846 6.5 66Z" fill="white" fill-opacity="0.5"/>
<path d="M6.5 57C-17.7023 67.2117 -50 93.5 -50 93.5V109.5L435.5 118V26C435.5 26 393.713 43.9511 365.5 50.5C320.733 60.8915 293.956 57.2102 248 57C205.553 56.8059 181.945 50.967 139.5 50.5C87.5014 49.9278 54.4115 36.7846 6.5 57Z" fill="white" fill-opacity="0.5"/>
<path d="M6.5 48C-17.7023 58.2117 -50 84.5 -50 84.5V100.5L435.5 109V17C435.5 17 393.713 34.9511 365.5 41.5C320.733 51.8915 293.956 48.2102 248 48C205.553 47.8059 181.945 41.967 139.5 41.5C87.5014 40.9278 54.4115 27.7846 6.5 48Z" fill="white" fill-opacity="0.5"/>
<path d="M6.5 39C-17.7023 49.2117 -50 75.5 -50 75.5V91.5L435.5 100V8C435.5 8 393.713 25.9511 365.5 32.5C320.733 42.8915 293.956 39.2102 248 39C205.553 38.8059 181.945 32.967 139.5 32.5C87.5014 31.9278 54.4115 18.7846 6.5 39Z" fill="white" fill-opacity="0.5"/>
</svg>
