<svg width="199" height="33" viewBox="0 0 199 33" fill="none" xmlns="http://www.w3.org/2000/svg">
<path d="M179.062 30.9375H184.562V18.5625H188.688L190.062 13.0625H184.562V10.3125C184.562 8.79372 185.794 7.5625 187.312 7.5625H190.062V2.0625H184.562C181.525 2.0625 179.062 4.52493 179.062 7.5625V13.0625H174.938V18.5625H179.062V30.9375Z" stroke="black" stroke-linecap="round" stroke-linejoin="round"/>
<path d="M107.75 8.9375C107.37 8.9375 107.062 8.62969 107.062 8.25C107.062 7.87031 107.37 7.5625 107.75 7.5625" stroke="black" stroke-linejoin="round"/>
<path d="M107.75 8.9375C108.13 8.9375 108.438 8.62969 108.438 8.25C108.438 7.87031 108.13 7.5625 107.75 7.5625" stroke="black" stroke-linejoin="round"/>
<path d="M99.5 23.375C103.297 23.375 106.375 20.297 106.375 16.5C106.375 12.703 103.297 9.625 99.5 9.625C95.703 9.625 92.625 12.703 92.625 16.5C92.625 20.297 95.703 23.375 99.5 23.375Z" stroke="black" stroke-linejoin="round"/>
<path d="M105.688 2.0625H93.3125C88.7561 2.0625 85.0625 5.75615 85.0625 10.3125V22.6875C85.0625 27.2438 88.7561 30.9375 93.3125 30.9375H105.688C110.244 30.9375 113.938 27.2438 113.938 22.6875V10.3125C113.938 5.75615 110.244 2.0625 105.688 2.0625Z" stroke="black"/>
<path d="M23.375 22.6877C20.9824 25.0803 15.4704 23.0413 12.7146 20.2854C9.9588 17.5296 7.92008 12.0178 10.3127 9.62523C11.006 8.93193 11.9595 8.84937 12.5423 8.87655C12.8799 8.89231 13.1712 9.08982 13.3676 9.36497L14.6767 11.1995C15.067 11.7465 15.0048 12.4954 14.5298 12.9705L13.2905 14.2097C13.5197 14.8972 14.253 16.5473 15.353 17.6473C16.453 18.7473 18.103 19.4806 18.7905 19.7098L20.0296 18.4705C20.5048 17.9955 21.2537 17.9333 21.8006 18.3236L23.6351 19.6328C23.9104 19.8292 24.1079 20.1204 24.1237 20.4581C24.1508 21.0408 24.0683 21.9944 23.375 22.6877Z" stroke="black" stroke-linejoin="round"/>
<path d="M16.5 30.9375C24.4736 30.9375 30.9375 24.4736 30.9375 16.5C30.9375 8.52639 24.4736 2.0625 16.5 2.0625C8.52639 2.0625 2.0625 8.52639 2.0625 16.5C2.0625 19.1297 2.76557 21.5952 3.99398 23.7188L2.78438 30.2156L9.28125 29.006C11.4048 30.2345 13.8703 30.9375 16.5 30.9375Z" stroke="black" stroke-linejoin="round"/>
</svg>
