<svg width="33" height="33" viewBox="0 0 33 33" fill="none" xmlns="http://www.w3.org/2000/svg">
<path d="M24.75 8.9375C24.3704 8.9375 24.0625 8.62969 24.0625 8.25C24.0625 7.87031 24.3704 7.5625 24.75 7.5625" stroke="black" stroke-linejoin="round"/>
<path d="M24.75 8.9375C25.1296 8.9375 25.4375 8.62969 25.4375 8.25C25.4375 7.87031 25.1296 7.5625 24.75 7.5625" stroke="black" stroke-linejoin="round"/>
<path d="M16.5 23.375C20.297 23.375 23.375 20.297 23.375 16.5C23.375 12.703 20.297 9.625 16.5 9.625C12.703 9.625 9.625 12.703 9.625 16.5C9.625 20.297 12.703 23.375 16.5 23.375Z" stroke="black" stroke-linejoin="round"/>
<path d="M22.6875 2.0625H10.3125C5.75615 2.0625 2.0625 5.75615 2.0625 10.3125V22.6875C2.0625 27.2438 5.75615 30.9375 10.3125 30.9375H22.6875C27.2438 30.9375 30.9375 27.2438 30.9375 22.6875V10.3125C30.9375 5.75615 27.2438 2.0625 22.6875 2.0625Z" stroke="black"/>
</svg>
