<svg width="24" height="17" viewBox="0 0 24 17" fill="none" xmlns="http://www.w3.org/2000/svg">
<g clip-path="url(#clip0_7_162)">
<path d="M7.28572 8.50005C7.7591 8.50005 8.14286 8.22823 8.14286 7.89291C8.14286 7.55759 7.7591 7.28577 7.28572 7.28577C6.81233 7.28577 6.42857 7.55759 6.42857 7.89291C6.42857 8.22823 6.81233 8.50005 7.28572 8.50005Z" stroke="black" stroke-width="1.71429" stroke-linecap="round" stroke-linejoin="round"/>
<path d="M12.8571 8.50005C13.3305 8.50005 13.7143 8.22823 13.7143 7.89291C13.7143 7.55759 13.3305 7.28577 12.8571 7.28577C12.3838 7.28577 12 7.55759 12 7.89291C12 8.22823 12.3838 8.50005 12.8571 8.50005Z" stroke="black" stroke-width="1.71429" stroke-linecap="round" stroke-linejoin="round"/>
<path d="M18.4286 8.50005C18.902 8.50005 19.2857 8.22823 19.2857 7.89291C19.2857 7.55759 18.902 7.28577 18.4286 7.28577C17.9552 7.28577 17.5714 7.55759 17.5714 7.89291C17.5714 8.22823 17.9552 8.50005 18.4286 8.50005Z" stroke="black" stroke-width="1.71429" stroke-linecap="round" stroke-linejoin="round"/>
<path d="M7.71429 15.1786L0.857147 16.3929L2.57143 12.75V1.82146C2.57143 1.49941 2.75204 1.19056 3.07354 0.962834C3.39503 0.735111 3.83106 0.607178 4.28572 0.607178H21.4286C21.8832 0.607178 22.3193 0.735111 22.6408 0.962834C22.9622 1.19056 23.1429 1.49941 23.1429 1.82146V13.9643C23.1429 14.2864 22.9622 14.5952 22.6408 14.823C22.3193 15.0507 21.8832 15.1786 21.4286 15.1786H7.71429Z" stroke="black" stroke-width="1.71429" stroke-linecap="round" stroke-linejoin="round"/>
</g>
<defs>
<clipPath id="clip0_7_162">
<rect width="24" height="17" fill="white"/>
</clipPath>
</defs>
</svg>
