<svg width="49" height="49" viewBox="0 0 49 49" fill="none" xmlns="http://www.w3.org/2000/svg">
<path d="M24.5 42.875C34.6482 42.875 42.875 34.6482 42.875 24.5C42.875 14.3518 34.6482 6.125 24.5 6.125C14.3518 6.125 6.125 14.3518 6.125 24.5C6.125 34.6482 14.3518 42.875 24.5 42.875Z" stroke="white" stroke-width="2" stroke-linecap="round" stroke-linejoin="round"/>
<path d="M24.5 26.5417C27.8827 26.5417 30.625 23.7994 30.625 20.4167C30.625 17.0339 27.8827 14.2917 24.5 14.2917C21.1173 14.2917 18.375 17.0339 18.375 20.4167C18.375 23.7994 21.1173 26.5417 24.5 26.5417Z" stroke="white" stroke-width="2" stroke-linecap="round" stroke-linejoin="round"/>
<path d="M12.593 38.4834C13.0983 36.8015 14.1324 35.3273 15.5417 34.2795C16.951 33.2317 18.6605 32.6661 20.4167 32.6667H28.5834C30.3418 32.6661 32.0534 33.233 33.4637 34.2832C34.8741 35.3334 35.9078 36.8108 36.4111 38.4956" stroke="white" stroke-width="2" stroke-linecap="round" stroke-linejoin="round"/>
</svg>
