<svg width="101" height="101" viewBox="0 0 101 101" fill="none" xmlns="http://www.w3.org/2000/svg">
<path d="M50.5 88.375C71.4178 88.375 88.375 71.4178 88.375 50.5C88.375 29.5822 71.4178 12.625 50.5 12.625C29.5822 12.625 12.625 29.5822 12.625 50.5C12.625 71.4178 29.5822 88.375 50.5 88.375Z" stroke="#19167A" stroke-width="2" stroke-linecap="round" stroke-linejoin="round"/>
<path d="M50.5 54.7083C57.4726 54.7083 63.125 49.0559 63.125 42.0833C63.125 35.1107 57.4726 29.4583 50.5 29.4583C43.5274 29.4583 37.875 35.1107 37.875 42.0833C37.875 49.0559 43.5274 54.7083 50.5 54.7083Z" stroke="#19167A" stroke-width="2" stroke-linecap="round" stroke-linejoin="round"/>
<path d="M25.957 79.3229C26.9986 75.8562 29.13 72.8176 32.0349 70.6578C34.9398 68.4981 38.4636 67.3323 42.0834 67.3333H58.9167C62.5412 67.3321 66.0692 68.5007 68.9762 70.6654C71.8833 72.8302 74.0139 75.8753 75.0514 79.3481" stroke="#19167A" stroke-width="2" stroke-linecap="round" stroke-linejoin="round"/>
</svg>
