<svg width="33" height="33" viewBox="0 0 33 33" fill="none" xmlns="http://www.w3.org/2000/svg">
<path d="M23.3749 22.6876C20.9823 25.0803 15.4703 23.0413 12.7146 20.2854C9.95873 17.5296 7.92002 12.0178 10.3126 9.6252C11.0059 8.9319 11.9595 8.84934 12.5422 8.87652C12.8799 8.89228 13.1711 9.08979 13.3675 9.36494L14.6767 11.1995C15.0669 11.7464 15.0048 12.4954 14.5297 12.9705L13.2904 14.2097C13.5196 14.8972 14.2529 16.5473 15.3529 17.6473C16.4529 18.7473 18.1029 19.4806 18.7904 19.7098L20.0296 18.4705C20.5048 17.9955 21.2536 17.9333 21.8006 18.3235L23.6351 19.6328C23.9104 19.8292 24.1078 20.1204 24.1236 20.4581C24.1507 21.0408 24.0682 21.9944 23.3749 22.6876Z" stroke="white" stroke-linejoin="round"/>
<path d="M16.5 30.9375C24.4736 30.9375 30.9375 24.4736 30.9375 16.5C30.9375 8.52639 24.4736 2.0625 16.5 2.0625C8.52639 2.0625 2.0625 8.52639 2.0625 16.5C2.0625 19.1297 2.76557 21.5952 3.99398 23.7188L2.78438 30.2156L9.28125 29.006C11.4048 30.2345 13.8703 30.9375 16.5 30.9375Z" stroke="white" stroke-linejoin="round"/>
</svg>
